<svg width="40" height="40" viewBox="0 0 56 56" fill="none" xmlns="http://www.w3.org/2000/svg">
<circle cx="28" cy="28" r="27" fill="#EFEFF0" stroke="#AFB1B6" stroke-width="2"/>
<g clip-path="url(#clip0_242_3414)">
<path d="M21.4107 28.5C22.0222 28.5 22.5179 28.0043 22.5179 27.3928C22.5179 26.7814 22.0222 26.2857 21.4107 26.2857C20.7993 26.2857 20.3036 26.7814 20.3036 27.3928C20.3036 28.0043 20.7993 28.5 21.4107 28.5Z" stroke="#AFB1B6" stroke-width="2" stroke-linecap="round" stroke-linejoin="round"/>
<path d="M28.6071 28.5C29.2186 28.5 29.7143 28.0043 29.7143 27.3928C29.7143 26.7814 29.2186 26.2857 28.6071 26.2857C27.9957 26.2857 27.5 26.7814 27.5 27.3928C27.5 28.0043 27.9957 28.5 28.6071 28.5Z" stroke="#AFB1B6" stroke-width="2" stroke-linecap="round" stroke-linejoin="round"/>
<path d="M35.8036 28.5C36.415 28.5 36.9107 28.0043 36.9107 27.3928C36.9107 26.7814 36.415 26.2857 35.8036 26.2857C35.1921 26.2857 34.6964 26.7814 34.6964 27.3928C34.6964 28.0043 35.1921 28.5 35.8036 28.5Z" stroke="#AFB1B6" stroke-width="2" stroke-linecap="round" stroke-linejoin="round"/>
<path d="M21.9643 40.6785L13.1072 42.8928L15.3215 36.25V16.3214C15.3215 15.7341 15.5548 15.1709 15.97 14.7557C16.3853 14.3404 16.9485 14.1071 17.5357 14.1071H39.6786C40.2659 14.1071 40.8291 14.3404 41.2443 14.7557C41.6596 15.1709 41.8929 15.7341 41.8929 16.3214V38.4643C41.8929 39.0515 41.6596 39.6147 41.2443 40.03C40.8291 40.4453 40.2659 40.6785 39.6786 40.6785H21.9643Z" stroke="#AFB1B6" stroke-width="2" stroke-linecap="round" stroke-linejoin="round"/>
</g>
<defs>
<clipPath id="clip0_242_3414">
<rect width="31" height="31" fill="white" transform="translate(12 13)"/>
</clipPath>
</defs>
</svg>
