<svg width="current" height="current" viewBox="0 0 115 131" fill="none" xmlns="http://www.w3.org/2000/svg">
<path d="M65.8332 114.301C65.8332 96.2649 66.0945 90.1202 65.8332 82.329L60.9483 82.329L60.0491 109.578C54.382 102.371 31.8357 105.097 31.0546 109.578C30.5925 112.228 51.805 123.565 60.9483 113.756C59.9293 120.297 65.8332 126.292 65.8332 114.301Z" fill="#97C2B9"/>
<path d="M61.6961 13.7206C45.6459 13.2492 39.3028 23.885 39.0487 31.0392C37.2933 29.7231 23.7283 24.3783 16.4012 35.7019C6.32087 51.2805 20.3978 61.0139 29.012 64.028C27.5979 67.6791 23.0622 78.9986 34.2298 88.5698C45.8323 98.5138 61.157 90.2454 63.6944 84.9935C64.7833 87.7055 73.8257 94.0067 85.0097 90.3223C98.8566 85.7607 98.4342 72.4794 95.6673 64.028C98.5651 63.369 111.639 57.6432 106.325 43.0291C100.996 28.3749 86.3351 32.6623 80.5777 33.2317C81.6062 30.5763 77.7463 14.1921 61.6961 13.7206Z" fill="#848ED1"/>
<circle cx="60.2084" cy="53.5316" r="10.178" transform="rotate(21.1714 60.2084 53.5316)" fill="#FDF3B6"/>
</svg>
