<svg width="current" height="current" viewBox="0 0 18 18" fill="currentColor" xmlns="http://www.w3.org/2000/svg">
<path fill-rule="evenodd" clip-rule="evenodd" d="M11.4797 15.6014C11.4227 15.6014 11.364 15.5989 11.3054 15.5929C10.5574 15.519 9.9709 14.9911 9.8094 14.2473L7.52885 3.71415L5.1803 9.13885C5.04515 9.44995 4.7383 9.6514 4.4 9.6514H1.85C1.37995 9.6514 1 9.2706 1 8.8014C1 8.33135 1.37995 7.9514 1.85 7.9514H3.8424L5.9725 3.03075C6.27425 2.33715 6.93895 1.9334 7.6946 2.00905C8.4426 2.083 9.0291 2.61085 9.1906 3.3546L11.4712 13.8878L13.8197 8.4631C13.9549 8.152 14.2609 7.9514 14.6 7.9514H17.15C17.6201 7.9514 18 8.33135 18 8.8014C18 9.2706 17.6201 9.6514 17.15 9.6514H15.1576L13.0275 14.5712C12.7496 15.2112 12.1537 15.6014 11.4797 15.6014" fill="current"/>
</svg>
